<svg width="24" height="24" viewBox="0 0 24 24" fill="none" xmlns="http://www.w3.org/2000/svg">
<path d="M21.4697 2.46973C21.7626 2.17688 22.2374 2.17697 22.5303 2.46973C22.8232 2.76262 22.8232 3.23738 22.5303 3.53027L2.53027 23.5303C2.23738 23.8232 1.76262 23.8232 1.46973 23.5303C1.17685 23.2374 1.17684 22.7626 1.46973 22.4697L4.84082 19.0977C3.88673 18.2308 3.01208 17.1884 2.25684 16.0029C1.71177 15.1486 1.46484 14.0538 1.46484 13.0049C1.46486 11.9559 1.71263 10.8612 2.25781 10.0068C4.64873 6.24865 8.15212 3.98047 12 3.98047C14.1334 3.9805 16.1819 4.68561 17.9795 5.95898L21.4697 2.46973ZM19.5801 8.3457C19.9028 8.08609 20.3752 8.1372 20.6348 8.45996C21.0186 8.93715 21.3954 9.45008 21.7432 9.99805C22.2878 10.8523 22.5352 11.9466 22.5352 12.9951C22.5351 14.0441 22.2874 15.1388 21.7422 15.9932C19.3513 19.7514 15.8479 22.0205 12 22.0205C10.6635 22.0205 9.35474 21.7378 8.12891 21.2217C7.74728 21.061 7.56805 20.6209 7.72852 20.2393C7.88923 19.8576 8.32922 19.6782 8.71094 19.8389C9.76503 20.2827 10.8766 20.5205 12 20.5205C15.2119 20.5205 18.2885 18.6288 20.4775 15.1875V15.1865C20.8321 14.631 21.0351 13.8358 21.0352 12.9951C21.0352 12.1544 20.8321 11.3592 20.4775 10.8037L20.4766 10.8018C20.1645 10.31 19.8218 9.84298 19.4658 9.40039C19.2062 9.07764 19.2573 8.60532 19.5801 8.3457ZM12 5.48047C8.78815 5.48047 5.71154 7.37116 3.52246 10.8125V10.8135C3.16789 11.369 2.96486 12.1642 2.96484 13.0049C2.96484 13.8456 3.16788 14.6417 3.52246 15.1973C4.22593 16.3014 5.03471 17.2555 5.90332 18.0352L8.45508 15.4834C7.96077 14.7808 7.66993 13.9263 7.66992 13C7.66992 10.6058 9.60579 8.66992 12 8.66992C12.9263 8.66994 13.7808 8.96077 14.4834 9.45508L16.9014 7.03711C15.3867 6.01944 13.7126 5.4805 12 5.48047ZM14.7725 13.5645C14.8476 13.1571 15.2382 12.8878 15.6455 12.9629C16.0528 13.038 16.3221 13.4286 16.2471 13.8359C15.9307 15.5518 14.541 16.9414 12.8252 17.2578C12.4181 17.3326 12.0273 17.0633 11.9521 16.6562C11.877 16.2489 12.1464 15.8573 12.5537 15.7822C13.6577 15.5786 14.5687 14.6684 14.7725 13.5645ZM12 10.1699C10.4342 10.1699 9.16992 11.4342 9.16992 13C9.16992 13.5104 9.30368 13.9869 9.54004 14.3994L13.3994 10.54C12.9869 10.3037 12.5103 10.1699 12 10.1699Z" fill="#25131A" fill-opacity="0.5"/>
</svg>
