<svg width="26" height="20" viewBox="0 0 26 20" fill="none" xmlns="http://www.w3.org/2000/svg">
<path d="M13.567 0C13.9895 0 14.3327 0.320611 14.3327 0.716383V3.72284C14.3327 4.20435 14.7602 4.60364 15.2756 4.60364C15.8037 4.60364 16.2186 4.20435 16.2186 3.72284V0.716383C16.2186 0.320611 16.5618 0 16.9855 0H21.0841C23.7998 0 26 2.0552 26 4.5919V7.55138C26 7.78626 25.8994 8.00939 25.7234 8.17381C25.5474 8.33823 25.3085 8.43218 25.0571 8.43218C24.1267 8.43218 23.3723 9.13682 23.3723 9.99413C23.3723 10.8573 24.1179 11.5584 25.0395 11.5678C25.5587 11.5725 26 11.9107 26 12.3958V15.4081C26 17.9436 23.7998 20 21.0841 20H16.9855C16.5618 20 16.2186 19.6794 16.2186 19.2836V16.7469C16.2186 16.2537 15.8037 15.8661 15.2756 15.8661C14.7602 15.8661 14.3327 16.2537 14.3327 16.7469V19.2836C14.3327 19.6794 13.9895 20 13.567 20H4.91586C2.21277 20 0 17.9448 0 15.4081V12.3958C0 11.9107 0.441296 11.5725 0.960542 11.5678C1.88337 11.5584 2.62766 10.8573 2.62766 9.99413C2.62766 9.16031 1.89845 8.52613 0.94294 8.52613C0.691489 8.52613 0.452611 8.43218 0.276596 8.26776C0.10058 8.10335 0 7.88021 0 7.64533V4.60364C0 2.07164 2.21779 0 4.92843 0H13.567ZM15.2756 7.1286C14.7602 7.1286 14.3327 7.52789 14.3327 8.00939V12.707C14.3327 13.1885 14.7602 13.5878 15.2756 13.5878C15.8037 13.5878 16.2186 13.1885 16.2186 12.707V8.00939C16.2186 7.52789 15.8037 7.1286 15.2756 7.1286Z" fill="#E0E0E0"/>
</svg>
