<svg width="21" height="18" viewBox="0 0 21 18" fill="none" xmlns="http://www.w3.org/2000/svg">
<path d="M18.6256 3.39362C16.6029 2.22598 14.0163 2.91982 12.8474 4.94257L9.90084 10.0469C9.04823 11.5209 10.1458 12.0359 11.3698 12.7697L14.2051 14.4062C15.1652 14.96 16.3916 14.6312 16.9454 13.6723L19.9745 8.42672C20.9921 6.66401 20.3883 4.41127 18.6256 3.39362Z" fill="#EA4335"/>
<path d="M15.2915 5.50632L12.4562 3.86989C10.891 3.00104 10.0047 2.94353 9.36206 3.96491L5.18035 11.207C4.01269 13.2285 4.70778 15.8138 6.72927 16.979C8.49197 17.9966 10.7448 17.3928 11.7624 15.6301L16.0241 8.2479C16.5804 7.28781 16.2517 6.06015 15.2915 5.50632Z" fill="#FBBC04"/>
<path d="M15.8372 1.78352L13.8457 0.633381C11.643 -0.638022 8.82639 0.115817 7.55499 2.31858L3.76327 8.8856C3.20321 9.85448 3.53575 11.0946 4.50463 11.6534L6.7349 12.9411C7.83625 13.5774 9.24391 13.1999 9.88026 12.0985L14.212 4.59637C15.1096 3.04242 17.0961 2.50985 18.65 3.40746L15.8372 1.78352Z" fill="#34A853"/>
<path d="M8.09364 4.19761L5.94089 2.95746C4.98076 2.4049 3.75438 2.73243 3.20056 3.69005L0.617757 8.1531C-0.653648 10.3496 0.100193 13.1599 2.30296 14.4276L3.9419 15.3714L5.92963 16.5166L6.79224 17.0129C5.2608 15.9878 4.7745 13.9338 5.71085 12.3161L6.37968 11.1609L8.82873 6.92918C9.3813 5.97409 9.05251 4.75017 8.09364 4.19761Z" fill="#4285F4"/>
</svg>
