<svg width="25" height="24" viewBox="0 0 25 24" fill="none" xmlns="http://www.w3.org/2000/svg">
<path d="M24.5 12C24.5 5.37258 19.1274 0 12.5 0C5.87258 0 0.5 5.37258 0.5 12C0.5 18.6274 5.87258 24 12.5 24C19.1274 24 24.5 18.6274 24.5 12Z" fill="white"/>
<path fill-rule="evenodd" clip-rule="evenodd" d="M21.4998 12.2088C21.4998 11.5571 21.4413 10.9304 21.3327 10.3287H12.6759V13.8842H17.6226C17.4095 15.0331 16.762 16.0066 15.7885 16.6584V18.9646H18.759C20.4971 17.3644 21.4998 15.0081 21.4998 12.2088Z" fill="#4285F4"/>
<path fill-rule="evenodd" clip-rule="evenodd" d="M12.6759 21.1915C15.1576 21.1915 17.2383 20.3685 18.759 18.9647L15.7885 16.6584C14.9654 17.2099 13.9126 17.5358 12.6759 17.5358C10.2819 17.5358 8.25563 15.9189 7.53284 13.7464H4.46204V16.1278C5.97446 19.1318 9.08287 21.1915 12.6759 21.1915Z" fill="#34A853"/>
<path fill-rule="evenodd" clip-rule="evenodd" d="M7.53283 13.7464C7.349 13.1949 7.24455 12.6058 7.24455 12C7.24455 11.3942 7.349 10.8051 7.53283 10.2536V7.87213H4.46202C3.8395 9.11299 3.48438 10.5168 3.48438 12C3.48438 13.4831 3.8395 14.8869 4.46202 16.1278L7.53283 13.7464Z" fill="#FBBC05"/>
<path fill-rule="evenodd" clip-rule="evenodd" d="M12.6759 6.46419C14.0254 6.46419 15.237 6.92795 16.1896 7.83875L18.8259 5.20245C17.2341 3.71927 15.1535 2.80847 12.6759 2.80847C9.08287 2.80847 5.97446 4.86821 4.46204 7.87217L7.53284 10.2536C8.25563 8.08107 10.2819 6.46419 12.6759 6.46419Z" fill="#EA4335"/>
</svg>
