<svg width="21" height="23" viewBox="0 0 21 23" fill="none" xmlns="http://www.w3.org/2000/svg">
<path d="M7.31827 20.7544C7.32717 20.7515 7.33318 20.7432 7.33318 20.7338V17.3699C7.33318 16.5072 8.03766 15.8078 8.90669 15.8078H12.0834C12.5007 15.8078 12.901 15.9724 13.1961 16.2653C13.4911 16.5583 13.6569 16.9556 13.6569 17.3699V20.7495C13.6543 21.1081 13.796 21.453 14.0505 21.7076C14.3051 21.9621 14.6514 22.1053 15.0127 22.1053H17.18C18.1922 22.1079 19.1639 21.7105 19.8806 21.0009C20.5972 20.2913 21 19.3277 21 18.3229V8.69495C21 7.88324 20.6375 7.1133 20.0104 6.59253L12.6376 0.747013C11.3551 -0.277905 9.51755 -0.244813 8.27333 0.825608L1.0688 6.59253C0.411976 7.09795 0.0193999 7.87018 0 8.69495V18.313C0 20.4074 1.71026 22.1053 3.81998 22.1053H5.93779C6.68294 22.1053 7.28949 21.5126 7.30328 20.775C7.30346 20.7656 7.30943 20.7573 7.31827 20.7544Z" fill="#0055FF"/>
</svg>
