<svg width="24" height="24" viewBox="0 0 24 24" fill="none" xmlns="http://www.w3.org/2000/svg">
<path d="M12.0039 2C14.4455 2.00007 16.0945 2.66074 17.0986 3.90723C18.0746 5.1188 18.3057 6.72635 18.3057 8.30273V9.48828C19.3683 9.61811 20.2336 9.92017 20.8623 10.5488C21.7948 11.4814 22.0078 12.9349 22.0078 14.7803V16.6309C22.0078 18.4762 21.7948 19.9308 20.8623 20.8633C19.9297 21.7954 18.4759 22.0078 16.6309 22.0078H7.37695C5.53187 22.0078 4.07808 21.7954 3.14551 20.8633C2.213 19.9308 2.00002 18.4762 2 16.6309V14.7803C2 12.9349 2.21305 11.4814 3.14551 10.5488C3.77398 9.92036 4.639 9.61818 5.70117 9.48828V8.30273C5.70117 6.72642 5.93237 5.11878 6.9082 3.90723C7.91235 2.66065 9.56216 2.00003 12.0039 2ZM7.37695 10.9033C5.52081 10.9033 4.66159 11.1538 4.20605 11.6094C3.75059 12.0649 3.5 12.9243 3.5 14.7803V16.6309C3.50002 18.4868 3.75054 19.3472 4.20605 19.8027C4.66172 20.258 5.5215 20.5078 7.37695 20.5078H16.6309C18.4863 20.5078 19.3461 20.258 19.8018 19.8027C20.2573 19.3472 20.5078 18.4868 20.5078 16.6309V14.7803C20.5078 12.9243 20.2572 12.0649 19.8018 11.6094C19.3462 11.1538 18.487 10.9033 16.6309 10.9033H7.37695ZM12.0039 12.6416C13.6956 12.6417 15.0672 14.0134 15.0674 15.7051C15.0674 17.3969 13.6957 18.7685 12.0039 18.7686C10.312 18.7686 8.94043 17.397 8.94043 15.7051C8.94065 14.0134 10.3121 12.6416 12.0039 12.6416ZM12.0039 14.1416C11.1406 14.1416 10.4406 14.8418 10.4404 15.7051C10.4404 16.5686 11.1404 17.2686 12.0039 17.2686C12.8673 17.2685 13.5674 16.5685 13.5674 15.7051C13.5672 14.8418 12.8672 14.1417 12.0039 14.1416ZM12.0039 3.5C9.81904 3.50003 8.69145 4.08394 8.07617 4.84766C7.43274 5.6465 7.20117 6.81613 7.20117 8.30273V9.40527C7.25937 9.40482 7.31795 9.40332 7.37695 9.40332H16.6309C16.6895 9.40332 16.7478 9.40483 16.8057 9.40527V8.30273C16.8057 6.81608 16.5741 5.6465 15.9307 4.84766C15.3154 4.08406 14.1885 3.50007 12.0039 3.5Z" fill="#25131A" fill-opacity="0.5"/>
</svg>
