<svg width="17" height="20" viewBox="0 0 17 20" fill="none" xmlns="http://www.w3.org/2000/svg">
<path d="M4.70352 18.8722L5.04207 16.7218L4.28794 16.7044H0.68689L3.18943 0.836568C3.1972 0.788666 3.22245 0.744001 3.25935 0.712282C3.29624 0.680564 3.3435 0.663086 3.39269 0.663086H9.46457C11.4803 0.663086 12.8714 1.08255 13.5977 1.91047C13.9382 2.29887 14.1551 2.70474 14.2599 3.15139C14.37 3.62005 14.3719 4.17998 14.2645 4.86291L14.2567 4.91275V5.35034L14.5972 5.54324C14.8839 5.69536 15.1118 5.86949 15.2866 6.06887C15.5779 6.40094 15.7662 6.823 15.8459 7.32338C15.9281 7.838 15.9009 8.45036 15.7662 9.14364C15.6109 9.94114 15.3597 10.6357 15.0205 11.2041C14.7085 11.7278 14.3111 12.1621 13.8392 12.4987C13.3886 12.8185 12.8533 13.0612 12.248 13.2166C11.6616 13.3694 10.9929 13.4464 10.2595 13.4464H9.78693C9.44903 13.4464 9.12084 13.5681 8.86321 13.7862C8.60493 14.0089 8.43403 14.3132 8.3816 14.6459L8.346 14.8394L7.74787 18.6295L7.72069 18.7687C7.71356 18.8127 7.70127 18.8347 7.68314 18.8496C7.66696 18.8632 7.64365 18.8722 7.621 18.8722H4.70352Z" fill="#253B80"/>
<path d="M14.9196 4.96289C14.9015 5.07876 14.8808 5.19722 14.8575 5.31892C14.0567 9.43006 11.3173 10.8503 7.81849 10.8503H6.03706C5.60918 10.8503 5.24862 11.161 5.18195 11.583L4.26987 17.3675L4.01159 19.0072C3.96822 19.2842 4.18184 19.5341 4.46148 19.5341H7.62106C7.99521 19.5341 8.31304 19.2622 8.37195 18.8932L8.40302 18.7327L8.99791 14.9575L9.0361 14.7504C9.09436 14.3801 9.41284 14.1082 9.78699 14.1082H10.2595C13.3207 14.1082 15.7171 12.8654 16.4175 9.26887C16.7101 7.76644 16.5586 6.51193 15.7844 5.62963C15.5501 5.36358 15.2594 5.14285 14.9196 4.96289Z" fill="#179BD7"/>
<path d="M14.0818 4.62921C13.9594 4.59361 13.8332 4.56124 13.7038 4.53211C13.5736 4.50363 13.4403 4.47838 13.3031 4.45637C12.8227 4.37869 12.2965 4.3418 11.7327 4.3418H6.97355C6.85638 4.3418 6.74504 4.36834 6.64536 4.41624C6.42591 4.52175 6.26279 4.72954 6.2233 4.98394L5.21089 11.3963L5.18176 11.5834C5.24844 11.1613 5.60899 10.8506 6.03687 10.8506H7.8183C11.3171 10.8506 14.0565 9.42974 14.8573 5.31925C14.8812 5.19756 14.9013 5.0791 14.9194 4.96323C14.7168 4.85577 14.4974 4.76385 14.2611 4.68552C14.2028 4.66611 14.1426 4.64733 14.0818 4.62921Z" fill="#222D65"/>
<path d="M6.22334 4.98373C6.26283 4.72933 6.42595 4.52154 6.64539 4.41667C6.74573 4.36877 6.85642 4.34223 6.97359 4.34223H11.7327C12.2965 4.34223 12.8228 4.37913 13.3031 4.45681C13.4403 4.47882 13.5737 4.50406 13.7038 4.53254C13.8333 4.56167 13.9595 4.59404 14.0818 4.62964C14.1427 4.64777 14.2029 4.66654 14.2618 4.68531C14.4981 4.76364 14.7175 4.8562 14.9201 4.96301C15.1583 3.44375 14.9182 2.40933 14.0967 1.47266C13.1911 0.441473 11.5566 0 9.46513 0H3.39325C2.96602 0 2.60158 0.310714 2.53555 0.733415L0.00646598 16.7643C-0.0433778 17.0815 0.20131 17.3676 0.521087 17.3676H4.26973L5.21093 11.3961L6.22334 4.98373Z" fill="#253B80"/>
</svg>
