<svg width="21" height="24" viewBox="0 0 21 24" fill="none" xmlns="http://www.w3.org/2000/svg">
<path d="M11.703 0C12.0119 0 12.2495 0.252 12.2495 0.552V4.416C12.2495 6.612 14.0436 8.412 16.2178 8.424C17.1208 8.424 17.8337 8.436 18.3802 8.436L18.5826 8.43511C18.9479 8.43233 19.4396 8.424 19.8653 8.424C20.1624 8.424 20.4 8.664 20.4 8.964V18.612C20.4 21.588 18.0119 24 15.0653 24H5.60792C2.51881 24 0 21.468 0 18.348V5.412C0 2.436 2.4 0 5.35842 0H11.703ZM12.9743 15.48H6.51089C6.02376 15.48 5.6198 15.876 5.6198 16.368C5.6198 16.86 6.02376 17.268 6.51089 17.268H12.9743C13.4614 17.268 13.8653 16.86 13.8653 16.368C13.8653 15.876 13.4614 15.48 12.9743 15.48ZM10.5267 9.48H6.51089C6.02376 9.48 5.6198 9.888 5.6198 10.38C5.6198 10.872 6.02376 11.268 6.51089 11.268H10.5267C11.0139 11.268 11.4178 10.872 11.4178 10.38C11.4178 9.888 11.0139 9.48 10.5267 9.48ZM13.9808 1.0872C13.9808 0.57 14.6022 0.3132 14.9575 0.6864C16.2418 2.0352 18.4862 4.3932 19.7408 5.7108C20.0878 6.0744 19.8335 6.678 19.3333 6.6792C18.3567 6.6828 17.2054 6.6792 16.3773 6.6708C15.0632 6.6708 13.9808 5.5776 13.9808 4.2504V1.0872Z" fill="url(#paint0_radial_277_410)" fill-opacity="0.7"/>
<defs>
<radialGradient id="paint0_radial_277_410" cx="0" cy="0" r="1" gradientTransform="matrix(20.4 23.2216 -19.7384 71.8072 0.733125 0.778379)" gradientUnits="userSpaceOnUse">
<stop stop-color="white" stop-opacity="0.7"/>
<stop offset="1" stop-color="white" stop-opacity="0.1"/>
</radialGradient>
</defs>
</svg>
