<svg width="24" height="24" viewBox="0 0 24 24" fill="none" xmlns="http://www.w3.org/2000/svg">
<path d="M14.791 2C17.1853 2.00004 19.0429 2.47451 20.2842 3.71582C21.5255 4.95713 22 6.81474 22 9.20898V14.791C22 16.6054 21.7288 18.1061 21.0605 19.2676C20.3776 20.4546 19.3214 21.215 17.9131 21.6162C17.9119 21.6166 17.9104 21.6178 17.9092 21.6182C17.0062 21.8849 15.9675 22 14.791 22H9.20996C8.03322 22 6.99388 21.885 6.09082 21.6182C6.08914 21.6177 6.08761 21.6167 6.08594 21.6162C4.67806 21.2149 3.62228 20.4543 2.93945 19.2676C2.27121 18.1061 2.00003 16.6054 2 14.791V9.20898C2.00004 6.81474 2.47451 4.95713 3.71582 3.71582C4.95713 2.47451 6.81474 2.00004 9.20898 2H14.791ZM12 17.3213C11.2969 17.3213 10.6394 17.4316 10.0469 17.6289C9.90987 17.6745 9.77632 17.7248 9.64648 17.7793C9.0929 18.0118 8.60682 18.3231 8.20605 18.6885C8.154 18.7359 8.10284 18.7838 8.05371 18.833C7.58744 19.3005 7.25548 19.847 7.09082 20.4268C7.69853 20.5456 8.40039 20.6045 9.20996 20.6045H14.791C15.5999 20.6045 16.3009 20.5454 16.9082 20.4268C16.9013 20.4023 16.8943 20.3779 16.8867 20.3535C16.8603 20.2682 16.8315 20.1832 16.7979 20.0996C16.7323 19.9365 16.6532 19.777 16.5615 19.6221C16.427 19.3946 16.2654 19.177 16.0791 18.9727C15.9826 18.8668 15.8789 18.7652 15.7695 18.667C15.4214 18.3542 15.0106 18.0821 14.5479 17.8662C14.3555 17.7764 14.1546 17.6953 13.9453 17.626C13.4251 17.4537 12.8549 17.3479 12.248 17.3252C12.166 17.3221 12.0833 17.3213 12 17.3213ZM9.20898 3.39551C6.9524 3.39555 5.55377 3.85053 4.70215 4.70215C3.85053 5.55377 3.39555 6.9524 3.39551 9.20898V14.791C3.39554 16.4926 3.654 17.7129 4.14844 18.5723C4.51415 19.2078 5.03153 19.6843 5.75391 20.0146C5.76646 19.9707 5.7811 19.9273 5.79492 19.8838C5.80026 19.867 5.80404 19.8497 5.80957 19.833C5.83097 19.7683 5.85377 19.7042 5.87793 19.6406C5.88448 19.6234 5.89071 19.606 5.89746 19.5889C6.02098 19.2752 6.17807 18.9763 6.36426 18.6943C6.37818 18.6732 6.39298 18.6527 6.40723 18.6318C6.44051 18.583 6.47375 18.5341 6.50879 18.4863C6.52334 18.4665 6.53887 18.4474 6.55371 18.4277C6.5953 18.3727 6.63777 18.3182 6.68164 18.2646C6.68969 18.2548 6.69793 18.2451 6.70605 18.2354C6.74861 18.1841 6.79233 18.1338 6.83691 18.084C6.8532 18.0658 6.86919 18.0473 6.88574 18.0293C6.93363 17.9772 6.98313 17.9264 7.0332 17.876C7.03985 17.8693 7.04605 17.8621 7.05273 17.8555L7.08789 17.8203C7.1299 17.7791 7.17336 17.7393 7.2168 17.6992C7.27006 17.6501 7.32454 17.6021 7.37988 17.5547C7.46532 17.4816 7.55241 17.4097 7.64258 17.3408C7.68137 17.3112 7.72111 17.2827 7.76074 17.2539C7.79482 17.2291 7.8286 17.2038 7.86328 17.1797C7.88844 17.1622 7.91398 17.1451 7.93945 17.1279C7.98649 17.0962 8.03395 17.0648 8.08203 17.0342C8.11785 17.0114 8.15405 16.989 8.19043 16.9668C8.22726 16.9443 8.26437 16.9222 8.30176 16.9004C8.33859 16.8789 8.37572 16.8578 8.41309 16.8369C8.45916 16.8112 8.50587 16.7864 8.55273 16.7617C8.57808 16.7483 8.60334 16.7348 8.62891 16.7217C8.68541 16.6928 8.74224 16.6642 8.7998 16.6367C8.82999 16.6223 8.86015 16.6077 8.89062 16.5938C9.04366 16.5235 9.20065 16.4593 9.36035 16.3994C9.37058 16.3956 9.38037 16.3905 9.39062 16.3867C9.47474 16.3556 9.55973 16.326 9.64551 16.2979C9.67941 16.2867 9.71389 16.2773 9.74805 16.2666C9.80063 16.2502 9.8531 16.233 9.90625 16.2178C9.95632 16.2034 10.0071 16.1911 10.0576 16.1777C10.0944 16.168 10.131 16.1576 10.168 16.1484C10.2107 16.1378 10.2538 16.1281 10.2969 16.1182C10.352 16.1055 10.4072 16.0925 10.4629 16.0811C10.4969 16.0741 10.5312 16.0681 10.5654 16.0615C10.6264 16.0499 10.6875 16.0385 10.749 16.0283C10.7799 16.0232 10.8108 16.0184 10.8418 16.0137C10.904 16.0041 10.9666 15.9963 11.0293 15.9883C11.0638 15.9839 11.0982 15.9786 11.1328 15.9746C11.1818 15.969 11.231 15.9646 11.2803 15.96C11.3355 15.9548 11.3908 15.9493 11.4463 15.9453C11.471 15.9435 11.4958 15.943 11.5205 15.9414C11.5851 15.9374 11.6499 15.9331 11.7148 15.9307C11.8095 15.9272 11.9046 15.9258 12 15.9258L12.2734 15.9307C12.277 15.9308 12.2806 15.9305 12.2842 15.9307C12.3521 15.9332 12.4198 15.9371 12.4873 15.9414C12.5085 15.9428 12.5297 15.9438 12.5508 15.9453C12.6086 15.9495 12.6661 15.9555 12.7236 15.9609C12.7709 15.9654 12.8182 15.9693 12.8652 15.9746C12.9008 15.9786 12.9362 15.9838 12.9717 15.9883C13.0318 15.996 13.0917 16.0036 13.1514 16.0127C13.1876 16.0182 13.2237 16.0243 13.2598 16.0303C13.3147 16.0394 13.3693 16.0492 13.4238 16.0596C13.4643 16.0672 13.5047 16.0747 13.5449 16.083C13.5933 16.093 13.6414 16.1043 13.6895 16.1152C13.7401 16.1267 13.7906 16.1379 13.8408 16.1504C13.8467 16.1519 13.8525 16.1538 13.8584 16.1553L14.0654 16.21C14.0775 16.2134 14.0895 16.2172 14.1016 16.2207C14.1297 16.2288 14.1576 16.2377 14.1855 16.2461C14.3593 16.2985 14.5301 16.3566 14.6973 16.4209C14.7566 16.4437 14.8156 16.4669 14.874 16.4912C14.8875 16.4968 14.9006 16.5031 14.9141 16.5088C14.975 16.5346 15.0358 16.5605 15.0957 16.5879C15.1364 16.6065 15.1766 16.6262 15.2168 16.6455C15.268 16.6701 15.3188 16.695 15.3691 16.7207C15.3973 16.7351 15.4252 16.7499 15.4531 16.7646C15.4929 16.7857 15.5321 16.8074 15.5713 16.8291C15.6188 16.8555 15.6662 16.8818 15.7129 16.9092C15.7422 16.9264 15.7709 16.9443 15.7998 16.9619C15.84 16.9863 15.8805 17.01 15.9199 17.0352C15.9592 17.0602 15.9975 17.0865 16.0361 17.1123C16.0755 17.1387 16.1146 17.1653 16.1533 17.1924C16.1658 17.2011 16.1781 17.21 16.1904 17.2188C16.2815 17.2836 16.3703 17.3508 16.457 17.4199C16.5123 17.464 16.5667 17.5089 16.6201 17.5547C16.7035 17.626 16.7847 17.6991 16.8633 17.7744C16.8826 17.7929 16.9019 17.8114 16.9209 17.8301C16.9556 17.8642 16.9898 17.8987 17.0234 17.9336C17.0487 17.9598 17.0739 17.986 17.0986 18.0127C17.1299 18.0464 17.1601 18.0809 17.1904 18.1152C17.2183 18.1468 17.2454 18.1788 17.2725 18.2109C17.2938 18.2363 17.3151 18.2614 17.3359 18.2871C17.3724 18.3321 17.4076 18.3778 17.4424 18.4238C17.4591 18.4459 17.4758 18.4679 17.4922 18.4902C17.5201 18.5283 17.5474 18.5667 17.5742 18.6055C17.5993 18.6418 17.6243 18.678 17.6484 18.7148C17.6674 18.7439 17.6857 18.7733 17.7041 18.8027C17.7283 18.8416 17.7523 18.8805 17.7754 18.9199C17.7819 18.931 17.7885 18.942 17.7949 18.9531C17.8798 19.1004 17.9566 19.2519 18.0254 19.4072C18.0507 19.4644 18.0756 19.5219 18.0986 19.5801C18.1086 19.6053 18.1174 19.6309 18.127 19.6562C18.1456 19.7058 18.1637 19.7555 18.1807 19.8057C18.1962 19.8516 18.2105 19.8979 18.2246 19.9443C18.2317 19.9677 18.2394 19.9911 18.2461 20.0146C18.9685 19.6843 19.4858 19.2078 19.8516 18.5723C20.346 17.7129 20.6045 16.4926 20.6045 14.791V9.20898C20.6045 6.9524 20.1495 5.55377 19.2979 4.70215C18.4462 3.85053 17.0476 3.39555 14.791 3.39551H9.20898ZM12.207 6.65625C14.3376 6.76373 16.0281 8.52115 16.0283 10.6787C16.0283 12.9034 14.2297 14.7158 12 14.7158C10.8851 14.7158 9.87769 14.2635 9.14941 13.5322C9.05835 13.4408 8.97166 13.3449 8.88965 13.2451C8.52082 12.7963 8.24728 12.2662 8.09863 11.6865C8.0656 11.5577 8.03888 11.4264 8.01855 11.293C7.98805 11.0927 7.97168 10.8874 7.97168 10.6787C7.97176 9.84366 8.22525 9.06847 8.65918 8.42578C8.73141 8.3188 8.80871 8.21552 8.89062 8.11621C9.05471 7.91727 9.23762 7.73444 9.43652 7.57031C9.63553 7.40611 9.85062 7.2607 10.0791 7.13672C10.6498 6.82701 11.3041 6.65137 12 6.65137L12.207 6.65625ZM12 8.04688C10.5436 8.04688 9.36739 9.22233 9.36719 10.6787C9.36719 12.1378 10.546 13.3213 12 13.3213C12.091 13.3213 12.1809 13.3167 12.2695 13.3076C13.5969 13.1722 14.6328 12.0465 14.6328 10.6787C14.6327 10.2236 14.5178 9.79584 14.3154 9.42285C14.194 9.199 14.0409 8.99494 13.8623 8.81641C13.5649 8.51906 13.1964 8.29301 12.7842 8.16504C12.6191 8.11377 12.4469 8.07851 12.2695 8.06055L12 8.04688Z" fill="#25131A" fill-opacity="0.5"/>
</svg>
